<svg xmlns="http://www.w3.org/2000/svg" width="200" height="37.399" data-name="CuidaSalud" viewBox="0 0 248 47.399"><defs><clipPath id="clip-path"><path fill="none" d="M0 0H248V47.399H0z" data-name="Rectángulo 3314"></path></clipPath></defs><g clip-path="url(#clip-path)" data-name="CuidaSalud"><path fill="#002357" d="M18.259 47.717a22.167 22.167 0 01-6.111.732A12.23 12.23 0 010 36.3a17.091 17.091 0 0117.575-17.714 17.574 17.574 0 014.065.456 2.178 2.178 0 01-1.04 4.229 16.136 16.136 0 00-3.624-.388 11 11 0 00-7.348 2.707 13.231 13.231 0 00-4.214 10.055c0 4.9 2.493 8.508 8.207 8.508a17.341 17.341 0 003.624-.379 2.037 2.037 0 011.013 3.943" data-name="Trazado 10852" transform="translate(0 -11.716)"></path><path fill="#002357" d="M77.009 41.487a2.464 2.464 0 012.421 2.925l-2.193 11.513c-.316 1.67-.556 3.206-.758 4.58a2.229 2.229 0 01-4.417-.607l.147-1.137h-.086c-2.02 2.707-4.641 4.125-7.262 4.125-3.051 0-5.457-1.633-5.457-5.929a17.859 17.859 0 01.429-3.739l1.855-9.738a2.452 2.452 0 014.818.912l-1.6 8.525a14.882 14.882 0 00-.344 2.879c0 1.719.687 2.965 2.665 2.965 2.32 0 4.985-2.75 5.844-7.09l1.517-8.17a2.464 2.464 0 012.421-2.014z" data-name="Trazado 10853" transform="translate(-37.448 -26.153)"></path><path fill="#002357" d="M119.682 21.011A2.963 2.963 0 01122.69 18a2.526 2.526 0 012.663 2.664 2.993 2.993 0 01-3.137 3.008 2.472 2.472 0 01-2.535-2.664M115.468 44.7l3.061-16.031a2.448 2.448 0 014.809.918l-3.061 16.031a2.448 2.448 0 01-4.809-.918" data-name="Trazado 10854" transform="translate(-72.761 -11.349)"></path><path fill="#002357" d="M153.579 30.352a1.355 1.355 0 00-.916-1.554 5.882 5.882 0 00-1.768-.258c-4.3 0-7.476 4.769-7.476 9.453 0 2.536.988 4.512 3.351 4.512 2.235 0 4.942-2.45 5.758-6.79zm4.8-14.789a2.448 2.448 0 012.405 2.906L156.955 38.6a60.759 60.759 0 00-.786 5.441 2.246 2.246 0 11-4.466-.468l.138-1.191h-.085a8.475 8.475 0 01-7.177 4.168c-3.738 0-6.36-3.008-6.36-7.734 0-7.391 5.371-14.137 13.063-14.137a8.786 8.786 0 013.224.6l1.468-7.72a2.449 2.449 0 012.405-1.996z" data-name="Trazado 10855" transform="translate(-87.131 -9.811)"></path><path fill="#002357" d="M210.639 46.132a1.721 1.721 0 00-1.675-2.055h-.027c-4.6 0-8.207 5.2-8.207 9.969 0 2.191.816 4 3.007 4 2.364 0 5.2-2.922 6.188-8.251zm.145 15.476a1.726 1.726 0 01-1.72-1.858c.066-.875.162-1.837.259-2.826h-.086c-2.062 3.824-4.855 5.156-7.519 5.156-3.738 0-6.188-2.921-6.188-7.132 0-7.133 4.985-14.739 14.739-14.739a23.308 23.308 0 014.706.516 1.726 1.726 0 011.334 2.028l-1.871 9.316a51.73 51.73 0 00-.86 7.856 1.727 1.727 0 01-1.724 1.684z" data-name="Trazado 10856" transform="translate(-123.259 -25.347)"></path><path fill="red" d="M418.911 44.488a2.236 2.236 0 012.872-1.23 12.657 12.657 0 004.587.852c2.792 0 5.329-1.5 5.329-4.3 0-1.891-1.247-3.18-4.04-4.684-3.352-1.8-5.886-4.082-5.886-7.563 0-5.543 4.812-8.98 10.656-8.98a15.714 15.714 0 014.169.515 2.227 2.227 0 11-1.249 4.275 10.439 10.439 0 00-3.307-.493c-3.223 0-5.027 1.848-5.027 3.782 0 1.977 1.633 3.18 4.34 4.684 3.523 1.848 5.629 4.168 5.629 7.692 0 5.8-4.727 9.367-11.172 9.367a17.354 17.354 0 01-5.624-.959 2.233 2.233 0 01-1.277-2.958z" data-name="Trazado 10857" transform="translate(-263.966 -11.716)"></path><path fill="red" d="M487.316 45.332a1.029 1.029 0 00-.93-1.221 11.25 11.25 0 00-.929-.035c-4.6 0-8.208 5.2-8.208 9.969 0 2.191.817 4 3.008 4 2.363 0 5.2-2.922 6.187-8.251zm.553 16.276a2.244 2.244 0 01-2.238-2.434c.061-.714.137-1.473.213-2.25h-.086c-2.063 3.824-4.856 5.156-7.52 5.156-3.739 0-6.188-2.921-6.188-7.132 0-7.133 4.985-14.739 14.739-14.739a22.989 22.989 0 014.02.38 2.36 2.36 0 011.894 2.786l-1.746 8.693a52.2 52.2 0 00-.844 7.393 2.241 2.241 0 01-2.243 2.146" data-name="Trazado 10858" transform="translate(-297.574 -25.347)"></path><path fill="red" d="M529.5 43.164l4.87-25.609a2.45 2.45 0 012.407-1.992h.036a2.45 2.45 0 012.406 2.911l-4.906 25.609a2.45 2.45 0 01-4.813-.918" data-name="Trazado 10859" transform="translate(-333.763 -9.811)"></path><path fill="red" d="M571.74 41.487a2.452 2.452 0 012.409 2.911l-2.2 11.528c-.317 1.67-.557 3.205-.758 4.58a2.229 2.229 0 01-4.417-.607l.147-1.137h-.087c-2.02 2.707-4.641 4.125-7.262 4.125-3.05 0-5.457-1.633-5.457-5.929a17.816 17.816 0 01.43-3.739l1.855-9.739a2.452 2.452 0 014.819.912l-1.6 8.525a14.878 14.878 0 00-.343 2.879c0 1.719.687 2.965 2.664 2.965 2.32 0 4.984-2.75 5.843-7.09l1.519-8.18a2.452 2.452 0 012.411-2z" data-name="Trazado 10860" transform="translate(-349.31 -26.153)"></path><path fill="red" d="M625.184 30.248a1.23 1.23 0 00-.781-1.4 5.77 5.77 0 00-1.923-.31c-4.3 0-7.477 4.769-7.477 9.453 0 2.536.988 4.512 3.352 4.512 2.234 0 4.941-2.45 5.757-6.79zm4.779-14.685a2.448 2.448 0 012.405 2.906L628.539 38.6a60.811 60.811 0 00-.786 5.441 2.245 2.245 0 11-4.466-.468l.138-1.192h-.086a8.473 8.473 0 01-7.176 4.168c-3.738 0-6.359-3.008-6.359-7.734 0-7.391 5.371-14.137 13.063-14.137a8.782 8.782 0 013.223.6l1.468-7.72a2.449 2.449 0 012.405-1.991" data-name="Trazado 10861" transform="translate(-384.412 -9.811)"></path><path fill="red" d="M315.666 33.57h-16.879l-3.72-13.208a2.078 2.078 0 00-3.959.035l-5.744 22.1-2.143-8.124a2.019 2.019 0 00-1.983-1.456h-19.9a1.921 1.921 0 100 3.835h18.3l3.756 14.24a2.019 2.019 0 001.983 1.456 2.017 2.017 0 001.981-1.463l5.808-22.349 2.068 7.342a2.027 2.027 0 001.974 1.427h18.451a1.921 1.921 0 100-3.835" data-name="Trazado 10862" transform="translate(-163.456 -11.936)"></path><path fill="#002357" d="M318.744 71.792a.742.742 0 00-.725.606 20 20 0 01-39.363-.629.742.742 0 00-.728-.63h-2.249a.742.742 0 00-.731.853 23.7 23.7 0 0046.78.673.742.742 0 00-.728-.873z" data-name="Trazado 10863" transform="translate(-173.318 -44.845)"></path><path fill="#002357" d="M278.755 19.5a.741.741 0 00.717-.571 20 20 0 0138.992.629.742.742 0 00.723.6h2.269a.742.742 0 00.726-.882 23.7 23.7 0 00-46.423-.673.741.741 0 00.722.9z" data-name="Trazado 10864" transform="translate(-173.823 .001)"></path></g></svg>

